<svg xmlns="http://www.w3.org/2000/svg" id="a" data-name="Calque 1" width="1106.408" height="237.149" viewBox="0 0 1106.408 237.149"><path d="m200.081,120.857c-.525-.776-.525-1.803,0-2.601l47.226-63.773c.502-.776,0-1.301-.777-1.301l-24.856.068c-.776,0-1.551.526-2.076,1.302l-33.279,44.85c-.777,1.028-1.803,1.028-2.579,0l-33.507-44.691c-.776-1.05-1.301-1.301-2.077-1.301l-24.833.068c-.776,0-1.05.503-.525,1.278l46.996,63.567c.525.776.525,1.826,0,2.602l-42.316,56.377-.023-13.58c0-.777-.525-1.278-1.301-1.278l-99.927.205c-.776.023-1.278-.502-1.278-1.278l-.137-58.249c0-.776.503-1.278,1.302-1.301l89.291-.183c.776,0,1.301-.525,1.301-1.301l-.046-19.424c0-.776-.525-1.278-1.302-1.278l-89.313.206c-.776,0-1.277-.525-1.3-1.302l-.115-52.816c0-.777.526-1.278,1.302-1.278l99.904-.228c.776,0,1.301-.525,1.301-1.301l-.046-19.424c0-.776-.525-1.278-1.301-1.278L1.278,2.487c-.777,0-1.278.525-1.278,1.301l.388,179.631c.022.776.525,1.301,1.301,1.301l121.93-.273h2.67l22.94-.069c.776,0,1.301-.251,2.076-1.301l32.777-43.55c.776-.776,1.278-.776,2.077,0l32.707,43.413c.503.776,1.302,1.278,2.077,1.278l26.135-.046c.776,0,1.026-.776.501-1.302l-47.499-62.015Z"></path><path d="m411.279,1.575l-22.003.046c-.776,0-1.278.525-1.278,1.301.137,59.778.274,119.83.388,179.631.023.776.525,1.301,1.302,1.301l22.002-.068c.777,0,1.302-.503,1.302-1.278l-.411-179.654c0-.777-.525-1.278-1.301-1.278Z"></path><path d="m551.378,144.663l-23.03.046c-.777,0-1.302.251-1.803,1.301-5.41,10.363-14.471,18.146-32.845,18.192-21.524.046-34.945-14.836-36.657-32.207h-25.312c4.975,32.777,27.778,54.3,62.015,54.209,29.261-.068,52.268-14.881,58.933-40.262.252-1.028-.525-1.302-1.301-1.278Z"></path><path d="m493.449,50.054c-35.31.091-57.153,21.387-61.81,54.209h25.267c1.165-12.417,12.804-32.16,36.589-32.205,25.632-.068,36.291,19.333,36.313,34.078,0,.776-.502,1.301-1.277,1.301l-70.415.159v19.401h.046l96.023-.205c.776,0,1.552-.776,1.803-1.552.525-2.076.776-4.679.776-7.258-.091-40.377-22.938-68.018-63.315-67.927Z"></path><path d="m688.875,52.199l-19.401.046c-.777,0-1.05.503-1.302,1.302l-2.557,10.339c-.525,1.575-1.826,1.05-2.601.274-7.259-7.235-24.103-14.448-37.045-14.403-37.798.068-61.537,27.823-61.445,68.2.091,40.377,26.546,68.018,61.764,67.949,18.1-.046,34.124-11.48,36.977-15.11,1.026-1.551,2.579-.524,2.579.526l.023,6.984c.046,18.124-9.496,36.771-36.68,36.839-21.477.046-30.813-10.545-32.913-16.502-.251-.776-.501-1.278-1.278-1.278l-22.527.046c-.777,0-1.302.525-1.302,1.302,2.123,20.702,26.248,38.505,58.066,38.437,36.497-.091,61.307-23.966,61.217-58.911l-.274-124.761c0-.776-.525-1.278-1.301-1.278Zm-60.052,111.682c-24.856.068-39.647-19.059-39.715-45.969-.047-26.933,14.653-46.105,39.509-46.174,23.556-.046,37.045,19.082,37.114,45.992.068,26.934-13.353,46.106-36.908,46.152Z"></path><path d="m823.951,144.047l-23.053.046c-.776,0-1.278.251-1.802,1.301-5.41,10.363-14.448,18.146-32.823,18.192-21.592.046-35.013-14.928-36.679-32.343h-25.336c4.93,32.867,27.755,54.437,62.06,54.346,29.239-.069,52.246-14.882,58.911-40.263.274-1.028-.503-1.278-1.278-1.278Z"></path><path d="m766,49.438c-35.242.091-57.085,21.319-61.787,54.073h25.268c1.209-12.418,12.872-32.024,36.564-32.069,25.633-.068,36.292,19.333,36.315,34.078.022.776-.502,1.301-1.278,1.301l-70.415.159c-.159,0-.342-.045-.502-.136v19.652c.159-.069.342-.115.547-.115l96.047-.205c.777,0,1.552-.776,1.803-1.551.503-2.077.753-4.68.753-7.259-.091-40.377-22.94-68.018-63.315-67.927Z"></path><path d="m908.106,49.119c-17.347.022-28.714,8.08-33.872,15.862-.503.777-2.58,1.302-2.853-.251l-2.602-11.641c-.274-.776-.525-1.301-1.301-1.301l-19.424.046c-.776,0-1.278.525-1.278,1.301l.296,128.389c0,.776.503,1.278,1.278,1.278l22.003-.046c.776,0,1.301-.525,1.301-1.301l-.159-71.168c-.046-20.2,12.325-39.122,34.078-39.168,25.632-.068,34.466,19.333,34.51,39.008l.16,71.19c0,.776.525,1.278,1.301,1.278l22.003-.046c.776,0,1.301-.525,1.278-1.302l-.161-71.167c-.068-33.667-19.012-61.056-56.559-60.965Z"></path><path d="m1106.02,1.301c0-.776-.525-1.301-1.301-1.301l-22.003.068c-.776,0-1.302.503-1.302,1.278l.138,61.604c.022,1.051-1.279,2.077-2.58.526-3.104-3.607-18.922-14.7-37.045-14.654-37.798.069-61.535,27.823-61.444,68.201.091,40.377,23.966,68.017,61.741,67.949,12.941-.046,30.015-7.851,36.999-14.836.777-.777,2.055-1.051,2.58.502l2.625,10.34c.251.776.502,1.301,1.278,1.301l19.423-.046c.777,0,1.302-.525,1.278-1.301l-.388-179.631Zm-61.239,161.645c-24.855.069-39.647-19.058-39.715-45.968-.068-26.934,14.653-46.107,39.51-46.174,23.555-.046,37.045,19.081,37.113,45.992.046,26.933-13.352,46.105-36.907,46.151Z"></path><path d="m306.05,50.468c-14.64.033-27.04,3.638-36.928,10.116l16.327,17.57c5.758-3.635,12.697-5.666,20.651-5.683,24.849-.056,39.646,19.065,39.706,45.986.017,7.695-1.177,14.754-3.466,20.92l17.903,19.266c6.656-10.959,10.189-24.653,10.154-40.241-.091-40.38-23.967-68.022-64.347-67.932Z"></path><path d="m306.306,164.618c-24.59.056-39.646-19.065-39.706-45.984-.017-7.76,1.221-14.872,3.572-21.074l-17.994-19.364c-6.679,10.972-10.203,24.738-10.168,40.493.091,40.379,23.708,68.022,64.347,67.931,14.638-.033,27.078-3.716,37.002-10.303l-16.202-17.436c-5.776,3.669-12.773,5.719-20.849,5.737Z"></path></svg>